<svg width="823.12732" height="756.22564" xmlns="http://www.w3.org/2000/svg" data-name="Layer 1">

 <g>
  <title>Layer 1</title>
  <path id="svg_1" fill="#e6e6e6" d="m532.29902,172.94725l-3.99878,0l0,-109.54533a63.40183,63.40183 0 0 0 -63.40179,-63.40192l-232.08673,0a63.40185,63.40185 0 0 0 -63.402,63.40172l0,600.97441a63.40188,63.40188 0 0 0 63.4018,63.40192l232.08663,0a63.40187,63.40187 0 0 0 63.402,-63.40168l0,-413.45288l3.99884,0l0.00003,-77.97624z"/>
  <path id="svg_2" fill="#fff" d="m467.45649,16.49498l-30.295,0a22.49484,22.49484 0 0 1 -20.82715,30.99052l-132.95945,0a22.49482,22.49482 0 0 1 -20.82715,-30.99056l-28.29559,0a47.34781,47.34781 0 0 0 -47.34784,47.34774l0,600.09259a47.3478,47.3478 0 0 0 47.34778,47.34784l233.2044,0a47.3478,47.3478 0 0 0 47.34784,-47.34778l0,0l0,-600.0926a47.34777,47.34777 0 0 0 -47.34784,-47.34775z"/>
  <polygon id="svg_3" fill="#3f3d56" points="306.127 751.864 303.127 751.864 309.127 350.864 312.127 350.864 306.127 751.864"/>
  <polygon id="svg_4" fill="#3f3d56" points="388.127 751.864 385.127 751.864 379.127 350.864 382.127 350.864 388.127 751.864"/>
  <rect id="svg_5" fill="#3f3d56" height="3" width="70" y="358.86444" x="310.12732"/>
  <rect id="svg_6" fill="#3f3d56" height="3" width="70" y="410.86444" x="310.12732"/>
  <rect id="svg_7" fill="#3f3d56" height="3" width="73" y="462.86444" x="309.12732"/>
  <rect id="svg_8" fill="#3f3d56" height="3" width="74" y="514.86444" x="309.12732"/>
  <rect id="svg_9" fill="#3f3d56" height="3" width="76" y="566.86444" x="308.12732"/>
  <rect id="svg_10" fill="#3f3d56" height="3" width="77" y="618.86444" x="307.12732"/>
  <rect id="svg_11" fill="#3f3d56" height="3" width="79" y="670.86444" x="306.12732"/>
  <rect id="svg_12" fill="#3f3d56" height="3" width="82" y="722.86444" x="304.12732"/>
  <circle id="svg_13" fill="#2f2e41" r="42.01233" cy="504.2174" cx="341.7944"/>
  <rect id="svg_14" fill="#2f2e41" transform="matrix(0.98401, -0.17813, 0.17813, 0.98401, -289.63076, 36.08746)" height="22.86749" width="12.76324" y="606.09253" x="544.31827"/>
  <rect id="svg_15" fill="#2f2e41" transform="matrix(0.98401, -0.17813, 0.17813, 0.98401, -290.84248, 31.6858)" height="22.86749" width="12.76324" y="610.63958" x="519.20011"/>
  <ellipse id="svg_16" transform="rotate(-40.2611 -475.094 418.382)" fill="#2f2e41" ry="3.98853" rx="10.63602" cy="1054.5345" cx="50.33456"/>
  <ellipse id="svg_17" transform="rotate(-40.2611 -466.39 433.222)" fill="#2f2e41" ry="3.98853" rx="10.63605" cy="1064.92235" cx="83.63329"/>
  <circle id="svg_18" fill="#fff" r="14.35864" cy="493.94094" cx="338.85318"/>
  <circle id="svg_19" fill="#3f3d56" r="4.78622" cy="488.79416" cx="332.95181"/>
  <path id="svg_20" fill="#00b0ff" d="m374.93625,458.51248c0.63177,-15.55359 -12.77313,-28.7276 -29.9408,-29.42493s-31.59692,11.346 -32.22873,26.8996s11.30191,19.08746 28.46955,19.78485s33.0682,-1.70593 33.69998,-17.25952z"/>
  <ellipse id="svg_21" transform="rotate(-77.0899 -360.878 848.575)" fill="#2f2e41" ry="21.00616" rx="6.59448" cy="1417.02523" cx="130.56062"/>
  <ellipse id="svg_22" transform="rotate(-77.0899 -310.202 939.609)" fill="#2f2e41" ry="21.00616" rx="6.59448" cy="1521.77401" cx="263.70479"/>
  <path id="svg_23" fill="#fff" d="m353.3331,520.77395a9.57243,9.57243 0 1 1 -18.8353,3.42884l-0.00335,-0.0185c-0.94175,-5.20215 3.08038,-7.043 8.28256,-7.98474s9.61438,-0.62773 10.55609,4.5744z"/>
  <path id="svg_24" fill="#e6e6e6" d="m486.65476,255.24048l-268.92261,24.10183a5.00588,5.00588 0 0 1 -5.42636,-4.53371l-5.97864,-66.7082a5.00588,5.00588 0 0 1 4.53371,-5.42637l268.9226,-24.10183a5.00589,5.00589 0 0 1 5.42637,4.53371l5.97864,66.70821a5.00588,5.00588 0 0 1 -4.53371,5.42636zm-275.61537,-50.57444a3.00328,3.00328 0 0 0 -2.72022,3.25582l5.97863,66.70821a3.00329,3.00329 0 0 0 3.25582,2.72023l268.9226,-24.10183a3.00328,3.00328 0 0 0 2.72023,-3.25582l-5.97863,-66.70821a3.0033,3.0033 0 0 0 -3.25583,-2.72023l-268.9226,24.10183z"/>
  <circle id="svg_25" fill="#3f3d56" r="21" cy="237.88361" cx="249.15676"/>
  <path id="svg_26" fill="#e6e6e6" d="m296.21342,219.6101a3.5,3.5 0 0 0 0.62486,6.97206l164.34129,-14.72887a3.5,3.5 0 1 0 -0.62486,-6.97206l-164.34129,14.72887z"/>
  <path id="svg_27" fill="#e6e6e6" d="m298.088,240.52627a3.5,3.5 0 1 0 0.62486,6.972l164.3413,-14.72887a3.5,3.5 0 0 0 -0.62487,-6.97205l-164.34129,14.72892z"/>
  <ellipse id="svg_28" transform="rotate(-69.0822 -139.49 679.982)" fill="#2f2e41" ry="6.76007" rx="21.53369" cy="1020.36296" cx="431.13233"/>
  <circle id="svg_29" transform="rotate(-80.7825 -110.736 765.244)" fill="#2f2e41" r="43.06735" cy="1138.14668" cx="420.07914"/>
  <rect id="svg_30" fill="#2f2e41" height="23.44171" width="13.08374" y="334.81517" x="322.75315"/>
  <rect id="svg_31" fill="#2f2e41" height="23.44171" width="13.08374" y="334.81517" x="348.92063"/>
  <ellipse id="svg_32" fill="#2f2e41" ry="4.08868" rx="10.90314" cy="358.52946" cx="333.65629"/>
  <ellipse id="svg_33" fill="#2f2e41" ry="4.08868" rx="10.90314" cy="357.98432" cx="359.82377"/>
  <path id="svg_34" fill="#00b0ff" d="m300.60203,260.96409c-3.47748,-15.57379 7.63867,-31.31045 24.82861,-35.14883s33.94422,5.67508 37.42169,21.24887s-7.91491,21.31765 -25.10485,25.156s-33.66797,4.31778 -37.14545,-11.25604z"/>
  <ellipse id="svg_35" transform="rotate(-64.6257 -231.684 565.574)" fill="#2f2e41" ry="21.53368" rx="6.76007" cy="918.49287" cx="250.62251"/>
  <circle id="svg_36" fill="#2f2e41" r="43.06733" cy="694.62297" cx="82.9008"/>
  <rect id="svg_37" fill="#2f2e41" height="23.44171" width="13.08374" y="728.42266" x="63.27519"/>
  <rect id="svg_38" fill="#2f2e41" height="23.44171" width="13.08374" y="728.42266" x="89.44267"/>
  <ellipse id="svg_39" fill="#2f2e41" ry="4.08868" rx="10.90314" cy="752.13696" cx="74.17827"/>
  <ellipse id="svg_40" fill="#2f2e41" ry="4.08868" rx="10.90314" cy="751.59179" cx="100.34581"/>
  <circle id="svg_41" fill="#fff" r="14.71922" cy="683.71987" cx="83.99113"/>
  <circle id="svg_42" fill="#3f3d56" r="4.90642" cy="683.71987" cx="83.99113"/>
  <path id="svg_43" fill="#e6e6e6" d="m41.12401,654.57162c-3.47748,-15.5738 7.63865,-31.31043 24.82865,-35.1488s33.94421,5.67511 37.42169,21.24891s-7.91492,21.31768 -25.10486,25.156s-33.66795,4.31774 -37.14548,-11.25611z"/>
  <ellipse id="svg_44" transform="rotate(-69.0822 -567.863 597.367)" fill="#2f2e41" ry="6.76007" rx="21.53369" cy="1207.60455" cx="-271.43749"/>
  <circle id="svg_45" transform="rotate(-80.7825 -607.384 721.218)" fill="#2f2e41" r="43.06735" cy="1363.97787" cx="-350.76627"/>
  <rect id="svg_46" fill="#2f2e41" height="23.44171" width="13.08374" y="604.67224" x="48.55595"/>
  <rect id="svg_47" fill="#2f2e41" height="23.44171" width="13.08374" y="604.67224" x="74.72343"/>
  <ellipse id="svg_48" fill="#2f2e41" ry="4.08868" rx="10.90314" cy="628.38653" cx="59.45909"/>
  <ellipse id="svg_49" fill="#2f2e41" ry="4.08868" rx="10.90314" cy="627.84139" cx="85.62657"/>
  <circle id="svg_50" fill="#fff" r="14.71922" cy="559.96945" cx="69.27189"/>
  <circle id="svg_51" fill="#3f3d56" r="4.90642" cy="559.96945" cx="69.27189"/>
  <path id="svg_52" fill="#00b0ff" d="m26.40483,530.82116c-3.47748,-15.57379 7.63867,-31.31045 24.82861,-35.14883s33.94422,5.67508 37.42169,21.24887s-7.91491,21.31765 -25.10486,25.156s-33.66796,4.31778 -37.14544,-11.25604z"/>
  <ellipse id="svg_53" transform="rotate(-64.6257 -632.203 472.044)" fill="#2f2e41" ry="21.53368" rx="6.76007" cy="1094.82055" cx="-424.09375"/>
  <path id="svg_54" fill="#fff" d="m47.02702,586.40951c0,4.21515 10.85327,12.53857 22.89655,12.53857s23.33514,-11.867 23.33514,-16.08209s-11.29193,0.81775 -23.33514,0.81775s-22.89655,-1.48938 -22.89655,2.72577z"/>
  <ellipse id="svg_55" transform="rotate(-69.0822 -507.527 747.259)" fill="#2f2e41" ry="6.76007" rx="21.53369" cy="1388.61613" cx="-72.05465"/>
  <circle id="svg_56" transform="rotate(-80.7825 -522.652 901.047)" fill="#2f2e41" r="43.06735" cy="1583.92604" cx="-117.98691"/>
  <polygon id="svg_57" fill="#2f2e41" points="196.604 644.792 209.687 644.792 207.127 672.864 196.604 668.233 196.604 644.792"/>
  <ellipse id="svg_58" transform="rotate(-28.2323 -493.589 201.484)" fill="#2f2e41" ry="10.90314" rx="4.08868" cy="944.87703" cx="-102.64591"/>
  <polygon id="svg_59" fill="#2f2e41" points="225.127 644.864 238.211 644.864 235.651 672.937 225.127 668.306 225.127 644.864"/>
  <ellipse id="svg_60" transform="rotate(-28.2323 -490.23 214.986)" fill="#2f2e41" ry="10.90314" rx="4.08868" cy="958.4517" cx="-70.76333"/>
  <circle id="svg_61" fill="#fff" r="14.71922" cy="600.08875" cx="217.31949"/>
  <circle id="svg_62" fill="#3f3d56" r="4.90642" cy="600.08875" cx="217.31949"/>
  <path id="svg_63" fill="#f2f2f2" d="m174.45242,570.94047c-3.47748,-15.57379 7.63867,-31.31046 24.82862,-35.14884s33.94421,5.67508 37.42169,21.24888s-7.91492,21.31765 -25.10486,25.156s-33.66797,4.31778 -37.14545,-11.25604z"/>
  <ellipse id="svg_64" transform="rotate(-36.4501 -506.076 269.219)" fill="#2f2e41" ry="21.53368" rx="6.76007" cy="922.11485" cx="-146.91866"/>
  <path id="svg_65" fill="#fff" d="m237.242,633.19845c0,-3.474 -8.945,-10.334 -18.8708,-10.334s-19.23228,9.78051 -19.23228,13.25448s9.30655,-0.674 19.23228,-0.674s18.8708,1.22755 18.8708,-2.24648z"/>
  <path id="svg_66" fill="#3f3d56" d="m192.12712,574.93506a94.95979,94.95979 0 0 1 -95,-94.99951c0,-0.19873 0.00049,-0.4082 0.01172,-0.60693c0.291,-52.02539 42.90332,-94.39307 94.98828,-94.39307a95.01491,95.01491 0 0 1 42.18506,180.145a94.10649,94.10649 0 0 1 -42.18506,9.85451zm0,-187.99951a93.19834,93.19834 0 0 0 -92.98974,92.45557c-0.01075,0.2124 -0.01026,0.38281 -0.01026,0.54443a93.0003,93.0003 0 0 0 185.15918,12.50684a92.98052,92.98052 0 0 0 -92.15918,-105.50684z"/>
  <path id="svg_67" fill="#00b0ff" d="m235.14976,484.53455l-65.02244,-37.54073a2,2 0 0 0 -3,1.73205l0,75.08145a2,2 0 0 0 3,1.73206l65.02244,-37.54073a2,2 0 0 0 0,-3.4641l-65.02244,-37.54073a2,2 0 0 0 -3,1.73205l0,75.08145a2,2 0 0 0 3,1.73206l65.02244,-37.54073a2,2 0 0 0 0,-3.4641z"/>
  <ellipse id="svg_68" fill="#e6e6e6" ry="2" rx="53" cy="747.86444" cx="227.12732"/>
 </g>
</svg>