<svg width="1054.40228" height="786.12721" xmlns="http://www.w3.org/2000/svg" data-name="Layer 1">
 <title>elements</title>

 <g>
  <title>Layer 1</title>
  <path d="m426,453.5636c-30.59473,113.5885 -95.36335,213 -213,213s-213,-95.36335 -213,-213s123.98953,-136.08759 213,-213c180.75372,-156.18616 308.01129,-139.74657 213,213z" fill="#f2f2f2" id="svg_1"/>
  <circle cx="488.40228" cy="105" r="68" fill="#ff6584" id="svg_2"/>
  <rect x="575.40228" y="10" width="36" height="36" fill="#ff6584" id="svg_3"/>
  <ellipse cx="215.59772" cy="667" rx="170" ry="23.12721" fill="#3f3d56" id="svg_4"/>
  <rect x="263.40228" y="129" width="230" height="117" fill="#00b0ff" id="svg_5"/>
  <circle cx="206.40228" cy="554" r="79" fill="#2f2e41" id="svg_6"/>
  <rect x="170.40228" y="616" width="24" height="43" fill="#2f2e41" id="svg_7"/>
  <rect x="218.40228" y="616" width="24" height="43" fill="#2f2e41" id="svg_8"/>
  <ellipse cx="190.40228" cy="659.5" rx="20" ry="7.5" fill="#2f2e41" id="svg_9"/>
  <ellipse cx="238.40228" cy="658.5" rx="20" ry="7.5" fill="#2f2e41" id="svg_10"/>
  <circle cx="208.40228" cy="534" r="27" fill="#fff" id="svg_11"/>
  <circle cx="208.40228" cy="534" r="9" fill="#3f3d56" id="svg_12"/>
  <path d="m129.76961,480.53227c-6.37889,-28.56758 14.01185,-57.43391 45.544,-64.47476s62.2651,10.41 68.644,38.97759s-14.51861,39.1038 -46.05075,46.14465s-61.75836,7.9201 -68.13725,-20.64748z" fill="#00b0ff" id="svg_13"/>
  <circle cx="179.40228" cy="327" r="79" fill="#2f2e41" id="svg_14"/>
  <rect x="143.40228" y="389" width="24" height="43" fill="#2f2e41" id="svg_15"/>
  <rect x="191.40228" y="389" width="24" height="43" fill="#2f2e41" id="svg_16"/>
  <ellipse cx="163.40228" cy="432.5" rx="20" ry="7.5" fill="#2f2e41" id="svg_17"/>
  <ellipse cx="211.40228" cy="431.5" rx="20" ry="7.5" fill="#2f2e41" id="svg_18"/>
  <circle cx="181.40228" cy="307" r="27" fill="#fff" id="svg_19"/>
  <circle cx="181.40228" cy="307" r="9" fill="#3f3d56" id="svg_20"/>
  <path d="m102.76961,253.53227c-6.37889,-28.56758 14.01185,-57.43391 45.544,-64.47476s62.2651,10.41 68.644,38.97759s-14.51861,39.1038 -46.05075,46.14465s-61.75836,7.9201 -68.13725,-20.64748z" fill="#00b0ff" id="svg_21"/>
  <ellipse cx="159.08877" cy="779.31153" rx="39.5" ry="12.40027" fill="#2f2e41" transform="rotate(-69.0822 -166.132 455.532)" id="svg_22"/>
  <ellipse cx="-129.62759" cy="635.99284" rx="12.40027" ry="39.5" fill="#2f2e41" transform="rotate(-64.6257 -292.848 289.213)" id="svg_23"/>
  <path d="m140.59772,355.5c0,7.732 19.90861,23 42,23s42.80456,-21.768 42.80456,-29.5s-20.71317,1.5 -42.80456,1.5s-42,-2.73199 -42,5z" fill="#fff" id="svg_24"/>
  <rect x="285.40228" y="112" width="230" height="117" fill="none" stroke="#3f3d56" stroke-miterlimit="10" stroke-width="2" id="svg_25"/>
  <rect x="587.40228" y="1" width="36" height="36" fill="none" stroke="#3f3d56" stroke-miterlimit="10" stroke-width="2" id="svg_26"/>
  <path d="m834.40217,528.96376c0,81.82751 -48.64516,110.39862 -108.652,110.39862s-108.652,-28.57111 -108.652,-110.39862s108.652,-185.925 108.652,-185.925s108.652,104.09751 108.652,185.925z" fill="#f2f2f2" id="svg_27"/>
  <polygon points="721.7918853759766,626.8456983566284 722.9049224853516,558.3626661300659 769.2149200439453,473.64065074920654 723.0788726806641,547.6206617355347 723.5799102783203,516.8276929855347 755.4958648681641,455.53164196014404 723.7118682861328,508.6787061691284 723.7118682861328,508.6796827316284 724.6118927001953,453.29766368865967 758.7888946533203,404.4986524581909 724.7528839111328,444.58864879608154 725.3148956298828,343.0386610031128 721.7829132080078,477.4726514816284 722.0728912353516,471.92666149139404 687.3249053955078,418.7386426925659 721.5158843994141,482.57265758514404 718.2779083251953,544.4246778488159 718.1819000244141,542.7827100753784 678.1228790283203,486.8106641769409 718.0598907470703,548.5826978683472 717.6549224853516,556.3176832199097 717.5829010009766,556.4337110519409 717.6159210205078,557.0686597824097 709.4018707275391,713.9916944503784 720.3769073486328,713.9916944503784 721.6928863525391,632.9386548995972 761.5329132080078,571.3176832199097 721.7918853759766,626.8456983566284 " fill="#3f3d56" id="svg_28"/>
  <ellipse cx="714.0695" cy="713.98849" rx="37.77886" ry="11.19374" fill="#3f3d56" id="svg_29"/>
  <ellipse cx="544.59761" cy="751.66667" rx="170" ry="23.12721" fill="#3f3d56" id="svg_30"/>
  <circle cx="546.59761" cy="633.16667" r="79" fill="#2f2e41" id="svg_31"/>
  <rect transform="rotate(-180 1429.99 1510.44)" x="2281.39073" y="2273.3728" width="24" height="43" fill="#2f2e41" id="svg_32"/>
  <rect transform="rotate(-180 1337.99 1506.44)" x="2141.39073" y="2269.3728" width="24" height="43" fill="#2f2e41" id="svg_33"/>
  <ellipse transform="rotate(-30 -591.444 450.673)" cx="218.95198" cy="1261.10951" rx="20" ry="7.5" fill="#2f2e41" id="svg_34"/>
  <ellipse transform="rotate(-30 -587.815 478.173)" cx="269.5821" cy="1288.60951" rx="20" ry="7.5" fill="#2f2e41" id="svg_35"/>
  <circle cx="544.59761" cy="613.16667" r="27" fill="#fff" id="svg_36"/>
  <circle cx="535.40217" cy="601.66667" r="9" fill="#3f3d56" id="svg_37"/>
  <path d="m623.23028,559.69894c6.37889,-28.56758 -14.01185,-57.43391 -45.544,-64.47476s-62.2651,10.41 -68.644,38.97759s14.51862,39.1038 46.05076,46.14465s61.75835,7.9201 68.13724,-20.64748z" fill="#00b0ff" id="svg_38"/>
  <ellipse transform="rotate(-66.8288 -445.096 1048.95)" cx="325.08498" cy="1722.72552" rx="12.40027" ry="39.5" fill="#2f2e41" id="svg_39"/>
  <ellipse transform="rotate(-66.8288 -404.056 1217.15)" cx="514.12537" cy="1943.93242" rx="12.40027" ry="39.5" fill="#2f2e41" id="svg_40"/>
  <rect x="413.40217" y="558.66667" width="36" height="36" fill="#ff6584" id="svg_41"/>
  <rect x="375.40217" y="494.66667" width="36" height="36" fill="none" stroke="#3f3d56" stroke-miterlimit="10" stroke-width="2" id="svg_42"/>
  <path d="m562.40217,667.66667a18,18 0 0 1 -36,0c0,-9.94113 8.05887,-12 18,-12s18,2.05887 18,12z" fill="#fff" id="svg_43"/>
 </g>
</svg>