<svg width="1054.40228" height="786.12721" xmlns="http://www.w3.org/2000/svg" data-name="Layer 1">
 <title>elements</title>

 <g>
  <title>Layer 1</title>
  <path id="svg_1" fill="#f2f2f2" d="m426,453.5636c-30.59473,113.5885 -95.36335,213 -213,213s-213,-95.36335 -213,-213s123.98953,-136.08759 213,-213c180.75372,-156.18616 308.01129,-139.74657 213,213z"/>
  <circle id="svg_2" fill="#ff6584" r="68" cy="105" cx="488.40228"/>
  <rect id="svg_3" fill="#ff6584" height="36" width="36" y="10" x="575.40228"/>
  <ellipse id="svg_4" fill="#3f3d56" ry="23.12721" rx="170" cy="667" cx="215.59772"/>
  <rect id="svg_5" fill="#00b0ff" height="117" width="230" y="129" x="263.40228"/>
  <circle id="svg_6" fill="#2f2e41" r="79" cy="554" cx="206.40228"/>
  <rect id="svg_7" fill="#2f2e41" height="43" width="24" y="616" x="170.40228"/>
  <rect id="svg_8" fill="#2f2e41" height="43" width="24" y="616" x="218.40228"/>
  <ellipse id="svg_9" fill="#2f2e41" ry="7.5" rx="20" cy="659.5" cx="190.40228"/>
  <ellipse id="svg_10" fill="#2f2e41" ry="7.5" rx="20" cy="658.5" cx="238.40228"/>
  <circle id="svg_11" fill="#fff" r="27" cy="534" cx="208.40228"/>
  <circle id="svg_12" fill="#3f3d56" r="9" cy="534" cx="208.40228"/>
  <path id="svg_13" fill="#00b0ff" d="m129.76961,480.53227c-6.37889,-28.56758 14.01185,-57.43391 45.544,-64.47476s62.2651,10.41 68.644,38.97759s-14.51861,39.1038 -46.05075,46.14465s-61.75836,7.9201 -68.13725,-20.64748z"/>
  <circle id="svg_14" fill="#2f2e41" r="79" cy="327" cx="179.40228"/>
  <rect id="svg_15" fill="#2f2e41" height="43" width="24" y="389" x="143.40228"/>
  <rect id="svg_16" fill="#2f2e41" height="43" width="24" y="389" x="191.40228"/>
  <ellipse id="svg_17" fill="#2f2e41" ry="7.5" rx="20" cy="432.5" cx="163.40228"/>
  <ellipse id="svg_18" fill="#2f2e41" ry="7.5" rx="20" cy="431.5" cx="211.40228"/>
  <circle id="svg_19" fill="#fff" r="27" cy="307" cx="181.40228"/>
  <circle id="svg_20" fill="#3f3d56" r="9" cy="307" cx="181.40228"/>
  <path id="svg_21" fill="#00b0ff" d="m102.76961,253.53227c-6.37889,-28.56758 14.01185,-57.43391 45.544,-64.47476s62.2651,10.41 68.644,38.97759s-14.51861,39.1038 -46.05075,46.14465s-61.75836,7.9201 -68.13725,-20.64748z"/>
  <ellipse id="svg_22" transform="rotate(-69.0822 -166.132 455.531)" fill="#2f2e41" ry="12.40027" rx="39.5" cy="779.31153" cx="159.08877"/>
  <ellipse id="svg_23" transform="rotate(-64.6257 -292.848 289.213)" fill="#2f2e41" ry="39.5" rx="12.40027" cy="635.99284" cx="-129.62759"/>
  <path id="svg_24" fill="#fff" d="m140.59772,355.5c0,7.732 19.90861,23 42,23s42.80456,-21.768 42.80456,-29.5s-20.71317,1.5 -42.80456,1.5s-42,-2.73199 -42,5z"/>
  <rect id="svg_25" stroke-width="2" stroke-miterlimit="10" stroke="#3f3d56" fill="none" height="117" width="230" y="112" x="285.40228"/>
  <rect id="svg_26" stroke-width="2" stroke-miterlimit="10" stroke="#3f3d56" fill="none" height="36" width="36" y="1" x="587.40228"/>
  <path id="svg_43" fill="#fff" d="m782.40228,679a18,18 0 0 1 -36,0c0,-9.94113 8.05887,-12 18,-12s18,2.05887 18,12z"/>
 </g>
</svg>