<svg width="316.65724" height="486.17886" xmlns="http://www.w3.org/2000/svg" data-name="Layer 1" stroke="null">
 <g stroke="null">
  <title stroke="null">Layer 1</title>
  <ellipse cx="-149.25634" cy="1194.12869" rx="21.53369" ry="6.76007" fill="#2f2e41" id="svg_26" stroke="null" transform="rotate(-69.0822 -579.694 549.887)"/>
  <circle cx="135.95912" cy="410.35305" r="43.06735" fill="#2f2e41" id="svg_27" stroke="null"/>
  <rect x="116.33351" y="444.15265" width="13.08374" height="23.44171" fill="#2f2e41" id="svg_28" stroke="null" transform="rotate(29.2683 122.875 455.874)"/>
  <rect x="155.50102" y="442.15259" width="13.08374" height="23.44171" fill="#2f2e41" id="svg_29" stroke="null" transform="rotate(-35.3709 162.043 453.873)"/>
  <ellipse cx="113.73667" cy="464.36693" rx="10.90314" ry="4.08868" fill="#2f2e41" id="svg_30" transform="rotate(18.1694 113.737 464.367)" stroke="null"/>
  <ellipse cx="173.03053" cy="461.97327" rx="10.90314" ry="4.13414" fill="#2f2e41" id="svg_31" stroke="null" transform="rotate(-34.4431 173.031 461.973)"/>
  <circle cx="137.04946" cy="399.44983" r="14.71921" fill="#fff" id="svg_32" stroke="null"/>
  <circle cx="141.71612" cy="392.44982" r="3.90643" fill="#3f3d56" id="svg_33" stroke="null"/>
  <path d="m94.18238,370.30153c-3.47748,-15.57379 7.63867,-31.31043 24.82861,-35.1488s33.94422,5.67511 37.4217,21.24884s-7.91492,21.31762 -25.10486,25.156s-33.66797,4.31786 -37.14545,-11.25604z" fill="#e6e6e6" id="svg_34" stroke="null"/>
  <ellipse cx="-310.45529" cy="1074.81721" rx="6.76007" ry="21.53369" fill="#2f2e41" id="svg_35" stroke="null" transform="rotate(-64.6257 -652.578 418.037)"/>
  <path d="m123.47128,424.55658c0,4.21515 7.25365,12.53857 15.30263,12.53857s15.59574,-11.867 15.59574,-16.08209s-7.54682,0.81775 -15.59574,0.81775s-15.30263,-1.48938 -15.30263,2.72577z" fill="#fff" id="svg_36" stroke="null"/>
  <path d="m305.50671,88.02108c-1.4297,-44.15967 -31.675,-79.01642 -67.55466,-77.8548c-79.853,2.36609 -81.80308,148.80118 -4.70743,159.32l-1.63226,12.97539l23.81077,-0.77089l-2.46814,-12.84263c31.01367,-6.85482 53.84791,-40.79111 52.55172,-80.82707z" fill="#ff6584" id="svg_45" stroke="null"/>
  <path d="m200.24279,104.50482l-8.99528,0.29122a146.49353,146.49353 0 0 1 -1.65029,-50.97329l8.99528,-0.29123q-4.98357,26.62538 1.65029,50.9733z" fill="#fff" id="svg_46" stroke="null"/>
  <rect x="215.66304" y="195.06844" width="27" height="6" fill="#3f3d56" id="svg_47" stroke="null" transform="rotate(-1.85434 -566.703 -248.424)"/>
  <polygon points="178.2080078125,398.27301025390625 175.49099731445312,397.0010070800781 242.302978515625,170.42898559570312 245.02001953125,171.70199584960938 178.2080078125,398.27301025390625 " fill="#3f3d56" id="svg_48" stroke="null"/>
  <path d="m241.68348,102.99548l-8.36382,-3.32362a146.49359,146.49359 0 0 1 18.83383,-47.395l8.36382,3.32362q-15.19734,22.42295 -18.83383,47.395z" fill="#fff" id="svg_50" stroke="null"/>
  <path d="m146.79218,94.87429c-17.653,-40.503 -58.64132,-61.70977 -91.54993,-47.36676c-73.32174,31.71782 -21.00088,168.50073 54.522,149.77438l3.28,12.65965l21.8391,-9.51844l-7.04085,-11.02049c26.28274,-17.83409 34.9542,-57.80758 18.94968,-94.52834z" fill="#6c63ff" id="svg_53" stroke="null"/>
  <path d="m69.17749,155.27603l-8.25042,3.5959a146.49372,146.49372 0 0 1 -20.37675,-46.75242l8.25043,-3.59589q5.21208,26.58158 20.37674,46.75241z" fill="#fff" id="svg_54" stroke="null"/>
  <rect x="-50.27054" y="379.54471" width="27" height="6" fill="#3f3d56" id="svg_55" stroke="null" transform="rotate(-23.5497 -416.41 -83.8811)"/>
  <path d="m188.41146,402.85262l0,0a1.49991,1.49991 0 0 1 -1.81676,-1.09466l-65.20742,-206.61623l2.91162,-0.722l65.20734,206.61591a1.49991,1.49991 0 0 1 -1.09478,1.81698z" fill="#3f3d56" id="svg_56" stroke="null"/>
 </g>

</svg>